<?xml version="1.0" encoding="UTF-8"?>
<svg version="1.1" xmlns="http://www.w3.org/2000/svg" width="395" height="402">
<path d="M0 0 C130.35 0 260.7 0 395 0 C395 132.66 395 265.32 395 402 C264.65 402 134.3 402 0 402 C0 269.34 0 136.68 0 0 Z " fill="#FEFEFE" transform="translate(0,0)"/>
<path d="M0 0 C1.2782666 -0.00999023 2.5565332 -0.01998047 3.87353516 -0.03027344 C15.81193767 0.07771056 26.86194553 2.38212683 38.0625 6.4375 C38.0625 5.7775 38.0625 5.1175 38.0625 4.4375 C39.0525 4.9325 39.0525 4.9325 40.0625 5.4375 C39.7325 6.0975 39.4025 6.7575 39.0625 7.4375 C40.08085937 7.6953125 41.09921875 7.953125 42.1484375 8.21875 C65.18579329 14.83721686 84.89280345 36.56675089 96.30761719 56.62548828 C101.41812914 66.19525727 104.74383784 75.85707847 107.0625 86.4375 C107.39894531 87.72720703 107.39894531 87.72720703 107.7421875 89.04296875 C110.89995445 102.6473209 110.14330023 118.90805983 107.0625 132.4375 C106.92247559 133.09073242 106.78245117 133.74396484 106.63818359 134.41699219 C100.56420064 162.03059276 83.3225181 186.4538648 59.8046875 202.125 C35.57129181 217.48689901 4.68464412 223.88301029 -23.5234375 218.00292969 C-33.4804305 215.59964647 -42.82157335 212.08994212 -51.9375 207.4375 C-52.99195313 206.90382813 -54.04640625 206.37015625 -55.1328125 205.8203125 C-66.50642608 199.61382363 -76.03484126 190.76075679 -84.9375 181.4375 C-85.5975 180.7775 -86.2575 180.1175 -86.9375 179.4375 C-89.36633115 175.83181252 -91.63528186 172.12491019 -93.9375 168.4375 C-94.72060547 167.23867188 -94.72060547 167.23867188 -95.51953125 166.015625 C-104.65669708 151.64688929 -108.88718055 135.65492878 -110.625 118.875 C-110.75455078 117.70130859 -110.88410156 116.52761719 -111.01757812 115.31835938 C-111.9375 106.88330853 -111.9375 106.88330853 -111.9375 104.4375 C-111.2775 104.4375 -110.6175 104.4375 -109.9375 104.4375 C-109.97230469 103.90125 -110.00710937 103.365 -110.04296875 102.8125 C-110.97710071 75.76715577 -97.26093563 52.15418371 -80.13671875 32.35546875 C-58.74884627 9.69387681 -30.48974242 0.10845536 0 0 Z " fill="#FEC8D4" transform="translate(195.9375,97.5625)"/>
<path d="M0 0 C2.3125 -0.3125 2.3125 -0.3125 5 0 C7.01691557 2.55993131 8.07562666 5.1820394 9.32421875 8.1875 C11.05030827 12.23116231 13.09169472 16.07560926 15.1875 19.9375 C15.55552734 20.62134766 15.92355469 21.30519531 16.30273438 22.00976562 C17.19918404 23.67460072 18.09921523 25.33750649 19 27 C21.63699654 25.42552954 24.26147363 23.83684615 26.8671875 22.2109375 C37.04255319 16 37.04255319 16 43 16 C44.85402624 17.85402624 44.16624347 20.46504768 44.18945312 22.93212891 C44.18848633 24.1413501 44.18848633 24.1413501 44.1875 25.375 C44.18814453 26.18759277 44.18878906 27.00018555 44.18945312 27.83740234 C44.13515086 34.05377722 43.49240879 39.95041435 42 46 C43.485 46.99 43.485 46.99 45 48 C45 48.66 45 49.32 45 50 C46.65 50.66 48.3 51.32 50 52 C50 52.66 50 53.32 50 54 C50.99 54 51.98 54 53 54 C53.0825 52.96875 53.165 51.9375 53.25 50.875 C54.10434842 46.46086648 55.01416687 44.35906227 58 41 C63.00807684 37.77007179 68.57105301 36.62432652 74.3125 35.3125 C81.4327666 33.66275846 85.97037533 30.52609792 91.4140625 25.73046875 C94 24 94 24 96.8359375 24.23828125 C97.55007813 24.48964844 98.26421875 24.74101562 99 25 C98.45136137 31.7857936 97.45732062 38.35009036 96 45 C98.24705872 46.12619807 100.49770657 47.24005366 102.76171875 48.33203125 C104.20998047 49.06486328 104.20998047 49.06486328 105.6875 49.8125 C106.66074219 50.29332031 107.63398438 50.77414063 108.63671875 51.26953125 C111 53 111 53 111.83203125 55.69921875 C111.88746094 56.45847656 111.94289063 57.21773437 112 58 C107.42515515 59.65755248 103.15626871 61.00823791 98.3125 61.5625 C91.85913679 62.70728814 87.18080288 66.79497782 82.1015625 70.6875 C79.73627979 72.45103572 77.68403156 73.83647893 75 75 C75.67095703 75.56267578 75.67095703 75.56267578 76.35546875 76.13671875 C80.07123546 79.28204793 83.60054431 82.50866713 87 86 C87.763125 86.680625 88.52625 87.36125 89.3125 88.0625 C91 90 91 90 91 94 C85.50520833 95.6484375 80.01041667 97.296875 74.515625 98.9453125 C72.76245972 99.47137085 72.76245972 99.47137085 70.97387695 100.00805664 C68.43090402 100.77079847 65.88779351 101.53306572 63.34448242 102.29467773 C57.09046277 104.16818455 50.83799742 106.04634026 44.59176636 107.94567871 C41.83039526 108.78507763 39.06812682 109.62150086 36.30578613 110.45770264 C34.98184617 110.85940884 33.65835476 111.26259647 32.33532715 111.66729736 C30.49161244 112.23113825 28.64623266 112.78952582 26.80078125 113.34765625 C25.75059814 113.66742432 24.70041504 113.98719238 23.6184082 114.31665039 C21 115 21 115 18 115 C18.94219821 117.37416123 18.94219821 117.37416123 22.25 118.6875 C26.36654395 121.00464742 29.12543999 123.60936389 31 128 C31.80022715 132.80898412 31.38661414 136.81867902 29.875 141.4375 C27.52348265 144.65124038 25.75687775 145.69954232 22 147 C18.125 147.1875 18.125 147.1875 15 147 C15 145.35 15 143.7 15 142 C15.56589844 141.72285156 16.13179687 141.44570313 16.71484375 141.16015625 C17.44832031 140.79792969 18.18179688 140.43570313 18.9375 140.0625 C20.03384766 139.52302734 20.03384766 139.52302734 21.15234375 138.97265625 C22.96249027 138.13628173 22.96249027 138.13628173 24 137 C24.38096179 133.03799737 24.42354404 130.71676684 22.375 127.25 C16.85408885 122.01966312 11.29841574 121.41828865 4 121 C4 122.65 4 124.3 4 126 C5.65 126 7.3 126 9 126 C9.38218767 127.65614657 9.71395102 129.32457024 10 131 C9 132 9 132 5.6875 132.3125 C2 132 2 132 -0.4375 130 C-0.953125 129.34 -1.46875 128.68 -2 128 C-4.97092253 129.16714814 -5.9455721 129.91331853 -7.6875 132.6875 C-10 135 -10 135 -11.8671875 135.27734375 C-18.52282077 134.81547596 -24.12665347 131.95914781 -30 129 C-31.27050525 128.37043122 -32.54135577 127.74155888 -33.8125 127.11328125 C-37.2166529 125.42506709 -40.61033385 123.71710096 -44 122 C-44.05165927 117.32196655 -44.05842025 112.64826845 -44.0078125 107.97021484 C-44.00143311 106.36141125 -44.04095821 104.75248111 -44.09375 103.14453125 C-44.06112357 100.77503693 -43.95880792 99.17114679 -43 97 C-39.98544407 94.17974162 -36.28815206 91 -32 91 C-32 90.34 -32 89.68 -32 89 C-31.37609375 88.76539063 -30.7521875 88.53078125 -30.109375 88.2890625 C-27.39744059 86.63176925 -27.11024003 85.3858401 -26.25 82.375 C-26.00765625 81.55773437 -25.7653125 80.74046875 -25.515625 79.8984375 C-25.26039063 78.95871094 -25.26039063 78.95871094 -25 78 C-25.66 77.67 -26.32 77.34 -27 77 C-26.01 77 -25.02 77 -24 77 C-23.83274414 76.2889209 -23.66548828 75.5778418 -23.49316406 74.84521484 C-21.59128407 66.9785797 -19.27048729 59.31318728 -16.75 51.625 C-15.95040507 49.15758959 -15.15092734 46.69014121 -14.3515625 44.22265625 C-13.21860994 40.74023525 -12.08427778 37.25827187 -10.94824219 33.77685547 C-7.5231577 23.26276079 -4.15215079 12.86323731 -2 2 C-1.34 2 -0.68 2 0 2 C0 1.34 0 0.68 0 0 Z " fill="#FE82AC" transform="translate(161,150)"/>
<path d="M0 0 C4.23853572 1.73538063 7.40019636 4.71742294 10.8125 7.6875 C11.44051514 8.22914795 12.06853027 8.7707959 12.71557617 9.32885742 C16.4244371 12.55175295 19.95004963 15.87460861 23.35546875 19.41796875 C25.97332254 21.93633166 28.87236359 24.06799471 31.7890625 26.2265625 C34.39230011 28.31467182 36.65393923 30.62629786 39 33 C41.2510372 35.12575261 43.53115474 37.21935937 45.8125 39.3125 C46.40998047 39.86228516 47.00746094 40.41207031 47.62304688 40.97851562 C49.08114922 42.31996978 50.5404504 43.66012065 52 45 C51 47 51 47 49.26367188 47.75854492 C48.12768555 48.11589722 48.12768555 48.11589722 46.96875 48.48046875 C45.67771362 48.89051147 45.67771362 48.89051147 44.3605957 49.30883789 C43.41659912 49.59879639 42.47260254 49.88875488 41.5 50.1875 C40.52184326 50.49357178 39.54368652 50.79964355 38.53588867 51.11499023 C30.11989104 53.71973584 21.64394764 56.09439635 13.15087891 58.43310547 C5.02351316 60.68061368 -3.01628418 63.14464354 -11.0390625 65.73828125 C-23.47337148 69.74244811 -23.47337148 69.74244811 -27 69 C-29.5 66.3125 -29.5 66.3125 -30.7578125 64.640625 C-32.61089521 62.19315728 -34.80553321 60.14221758 -37 58 C-38.27216057 56.73049529 -39.54294453 55.45960991 -40.8125 54.1875 C-41.71935547 53.28064453 -41.71935547 53.28064453 -42.64453125 52.35546875 C-43.31548828 51.68451172 -43.31548828 51.68451172 -44 51 C-42.50323111 47.57770031 -40.52581023 45.17529787 -38 42.4375 C-36.79730469 41.12458984 -36.79730469 41.12458984 -35.5703125 39.78515625 C-34.72210938 38.86605469 -33.87390625 37.94695312 -33 37 C-24.69531786 27.90018872 -16.55361431 18.79769386 -8.91796875 9.125 C-8.28503906 8.42375 -7.65210938 7.7225 -7 7 C-6.34 7 -5.68 7 -5 7 C-4.731875 6.401875 -4.46375 5.80375 -4.1875 5.1875 C-3.01506533 3.02775192 -1.80630718 1.64209744 0 0 Z " fill="#FEC8D4" transform="translate(190,194)"/>
<path d="M0 0 C3.91436738 0.53230203 4.71299126 0.64317832 7.3125 3.875 C9 7 9 7 9 10 C9.62648437 9.96519531 10.25296875 9.93039063 10.8984375 9.89453125 C11.71570313 9.86746094 12.53296875 9.84039062 13.375 9.8125 C14.18710938 9.77769531 14.99921875 9.74289063 15.8359375 9.70703125 C16.55007812 9.80371094 17.26421875 9.90039062 18 10 C20.67927341 14.01891012 20.15601248 16.24161923 20 21 C20.721875 21.268125 21.44375 21.53625 22.1875 21.8125 C24.97590126 22.98982498 27.44095724 24.39145884 30 26 C29.53233775 30.553957 29.53233775 30.553957 27.14453125 32.5546875 C26.37496094 32.99039063 25.60539062 33.42609375 24.8125 33.875 C20.88665721 36.29521053 18.19761096 38.75198932 15.33203125 42.3359375 C11.57998766 47.02324123 6.98267921 52.52590706 0.87890625 53.49609375 C-11.60392206 53.27554908 -11.60392206 53.27554908 -16.87109375 48.1953125 C-22.24352816 42.4661571 -23.34820478 37.963763 -23.20703125 30.19921875 C-22.57224648 23.45612775 -17.75174503 19.29126665 -13 15 C-11.81497244 14.03861105 -10.62752974 13.08019017 -9.4375 12.125 C-5.36133557 8.73127034 -2.73018807 4.50031001 0 0 Z " fill="#FE82AC" transform="translate(235,126)"/>
<path d="M0 0 C2.3125 -0.3125 2.3125 -0.3125 5 0 C8.03616654 3.55964352 8.31924758 6.42411796 8 11 C6.35 11.33 4.7 11.66 3 12 C2.75765625 13.03898438 2.5153125 14.07796875 2.265625 15.1484375 C1.92747729 16.55738628 1.58891292 17.9662351 1.25 19.375 C1.01410156 20.39400391 1.01410156 20.39400391 0.7734375 21.43359375 C-0.16228092 25.28443492 -1.31045732 28.89772431 -2.83203125 32.55859375 C-5.67405072 39.44456734 -7.76043774 46.57143081 -9.9375 53.6875 C-10.77764275 56.42128756 -11.62091221 59.15409889 -12.46484375 61.88671875 C-12.6698349 62.55524872 -12.87482605 63.22377869 -13.08602905 63.91256714 C-14.15700471 67.38144791 -15.27268029 70.82724041 -16.46533203 74.25634766 C-16.70192032 74.94098587 -16.93850861 75.62562408 -17.18226624 76.33100891 C-17.84100445 78.22316248 -18.51110279 80.11135002 -19.18188477 81.99926758 C-20.30255805 85.01671159 -20.30255805 85.01671159 -19 88 C-18.2265625 87.07316406 -17.453125 86.14632812 -16.65625 85.19140625 C-15.60522524 83.98085095 -14.55308205 82.77126606 -13.5 81.5625 C-12.74203125 80.64500977 -12.74203125 80.64500977 -11.96875 79.70898438 C-9.0427527 76.39894993 -7.06900147 74.64925018 -2.59375 74.08984375 C-0.81484375 74.04537109 -0.81484375 74.04537109 1 74 C-0.35172847 78.08379341 -2.06936242 80.37683519 -5.1875 83.3125 C-9.37570009 87.35160559 -13.23988312 91.56282028 -17 96 C-18.485 95.505 -18.485 95.505 -20 95 C-21.36893239 94.94729537 -21.36893239 94.94729537 -24 96 C-24 95.01 -24 94.02 -24 93 C-25.813492 94.14426266 -27.62576725 95.29045392 -29.4375 96.4375 C-30.44683594 97.07558594 -31.45617187 97.71367187 -32.49609375 98.37109375 C-34.84553835 99.77649542 -34.84553835 99.77649542 -36 101 C-36.04092937 103.33297433 -36.04241723 105.66705225 -36 108 C-35.5875 107.360625 -35.175 106.72125 -34.75 106.0625 C-32.82565583 103.79452294 -31.91387197 103.2913872 -29 103 C-28.67 103.33 -28.34 103.66 -28 104 C-27.67 103.34 -27.34 102.68 -27 102 C-26.34 102 -25.68 102 -25 102 C-25.58684266 105.5607075 -26.92768941 107.33013324 -29.375 109.9375 C-32.03473208 112.78397922 -34.07644625 115.60722882 -36 119 C-34.7315625 119.47179687 -34.7315625 119.47179687 -33.4375 119.953125 C-27.10070124 122.34382635 -20.9865422 124.83065413 -15 128 C-15.66666667 130 -16.33333333 132 -17 134 C-22.8636039 132.25120586 -28.34137637 130.02306211 -33.875 127.4375 C-34.52927979 127.13255615 -35.18355957 126.8276123 -35.85766602 126.51342773 C-38.72391254 125.15624014 -41.35583217 123.76277856 -44 122 C-44.25342833 119.39029155 -44.33054401 117.0402812 -44.25 114.4375 C-44.23251709 113.71385254 -44.21503418 112.99020508 -44.19702148 112.24462891 C-44.15727324 110.80886437 -44.11048185 109.37327503 -44.05615234 107.93798828 C-44.00995042 106.34341931 -44.03609694 104.74692045 -44.08203125 103.15234375 C-44.06163675 100.77434498 -43.96202737 99.17843698 -43 97 C-39.98544407 94.17974162 -36.28815206 91 -32 91 C-32 90.34 -32 89.68 -32 89 C-31.37609375 88.76539063 -30.7521875 88.53078125 -30.109375 88.2890625 C-27.39744059 86.63176925 -27.11024003 85.3858401 -26.25 82.375 C-26.00765625 81.55773437 -25.7653125 80.74046875 -25.515625 79.8984375 C-25.26039063 78.95871094 -25.26039063 78.95871094 -25 78 C-25.66 77.67 -26.32 77.34 -27 77 C-26.01 77 -25.02 77 -24 77 C-23.83274414 76.2889209 -23.66548828 75.5778418 -23.49316406 74.84521484 C-21.59128407 66.9785797 -19.27048729 59.31318728 -16.75 51.625 C-15.95040507 49.15758959 -15.15092734 46.69014121 -14.3515625 44.22265625 C-13.21860994 40.74023525 -12.08427778 37.25827187 -10.94824219 33.77685547 C-7.5231577 23.26276079 -4.15215079 12.86323731 -2 2 C-1.34 2 -0.68 2 0 2 C0 1.34 0 0.68 0 0 Z " fill="#FE82AC" transform="translate(161,150)"/>
<path d="M0 0 C5.02665047 7.5399757 9.35628981 15.54837119 13.640625 23.52734375 C14.98538453 26.06274375 14.98538453 26.06274375 16.734375 28.56640625 C18 31 18 31 17.8828125 33.109375 C16.84291157 35.33641948 15.6793273 36.58322232 13.875 38.25 C10.6764869 41.3119912 7.75365054 44.50366578 4.86328125 47.85546875 C2.87723372 50.14129704 0.8484924 52.38357413 -1.1875 54.625 C-3.86295615 57.58039239 -6.49273321 60.56536581 -9.06640625 63.609375 C-9.59403564 64.23247559 -10.12166504 64.85557617 -10.6652832 65.49755859 C-11.69792558 66.72094789 -12.72661786 67.94768578 -13.75073242 69.17822266 C-16.58825143 72.53898227 -19.4423275 75.36420614 -23 78 C-24.60945912 74.01009086 -23.2590574 70.8069687 -21.9375 66.9453125 C-21.59730835 65.91033379 -21.59730835 65.91033379 -21.25024414 64.85444641 C-20.50963901 62.60803323 -19.75485487 60.36666044 -19 58.125 C-18.48848379 56.58117442 -17.97807158 55.03698263 -17.46875 53.49243164 C-16.45446163 50.41859727 -15.43582936 47.3462583 -14.4140625 44.27490234 C-12.55709501 38.67898549 -10.77229027 33.06072956 -9 27.4375 C-7.0534228 21.27294515 -5.05847597 15.12813251 -3 9 C-2.68675781 8.06027344 -2.37351563 7.12054688 -2.05078125 6.15234375 C-1.3671875 4.1015625 -0.68359375 2.05078125 0 0 Z " fill="#FEC6D3" transform="translate(164,161)"/>
<path d="M0 0 C0.33 0.99 0.66 1.98 1 3 C1.71542969 2.73574219 2.43085938 2.47148437 3.16796875 2.19921875 C6 2 6 2 8.67578125 4.01953125 C9.98095703 5.40205078 9.98095703 5.40205078 11.3125 6.8125 C12.19550781 7.72644531 13.07851562 8.64039063 13.98828125 9.58203125 C16 12 16 12 16 14 C16.99 14.33 17.98 14.66 19 15 C19.556875 15.825 20.11375 16.65 20.6875 17.5 C23.56141881 20.60693925 25.05873615 20.54289934 29.09765625 20.84375 C31.56891163 21.04672785 33.0834731 21.39011741 35 23 C35.75 26.125 35.75 26.125 36 29 C32.37 29 28.74 29 25 29 C25 30.65 25 32.3 25 34 C26.65 34 28.3 34 30 34 C30.38218767 35.65614657 30.71395102 37.32457024 31 39 C30 40 30 40 26.6875 40.3125 C23 40 23 40 20.5625 38 C20.046875 37.34 19.53125 36.68 19 36 C16.07764616 37.14806758 14.99225276 38.01084614 13.125 40.625 C11 43 11 43 7.75 43.3125 C6.38875 43.1578125 6.38875 43.1578125 5 43 C4.34 41.68 3.68 40.36 3 39 C3.99 38.505 3.99 38.505 5 38 C5 37.34 5 36.68 5 36 C4.23816406 35.68546875 3.47632813 35.3709375 2.69140625 35.046875 C-3.57837779 32.44816301 -9.81538334 29.79557167 -16 27 C-13.2073159 22.53170544 -10.05854145 18.70809532 -6.48828125 14.83203125 C-4.79208346 12.96413169 -4.79208346 12.96413169 -4 10 C-4.66 10 -5.32 10 -6 10 C-6.33 10.99 -6.66 11.98 -7 13 C-7.66 12.67 -8.32 12.34 -9 12 C-12.33537489 13.11179163 -13.63707344 14.47411298 -16 17 C-16.78541621 12.02569734 -16.78541621 12.02569734 -16 9 C-12.43123692 5.06463443 -8.29449533 1.9593237 -3 1 C-3 1.99 -3 2.98 -3 4 C-0.94729537 2.15811388 -0.94729537 2.15811388 0 0 Z " fill="#FF80AB" transform="translate(140,242)"/>
<path d="M0 0 C2.43883593 1.30651925 2.85370177 2.31755133 3.75 4.9375 C4.75175633 10.60436976 4.96557659 16.1391998 5 21.875 C5.020625 22.73029297 5.04125 23.58558594 5.0625 24.46679688 C5.10273408 31.06015681 4.29476669 36.65076519 0.12890625 42.03125 C-4.93119527 45.94874795 -9.10441343 46.74374157 -15.4765625 46.390625 C-20.6447708 45.54624167 -23.13029469 43.11613717 -26.625 39.4375 C-29.19830782 33.89499084 -29.50707877 27.70873631 -27.5546875 21.8515625 C-26.625 20.125 -26.625 20.125 -24.25 16.9375 C-23.8375 16.36644531 -23.425 15.79539063 -23 15.20703125 C-18.22983656 9.06815614 -8.15773844 -0.22660385 0 0 Z " fill="#FE83AD" transform="translate(201.25,117.0625)"/>
<path d="M0 0 C4.35788305 2.8722411 7.74328055 5.94664931 9.75 10.8125 C10.72844621 17.60473708 9.8143866 22.32008567 5.75 27.8125 C1.8662403 31.5940555 -1.8894707 33.58763187 -7.3515625 33.953125 C-13.18487098 33.75266766 -16.37341269 31.67556558 -20.62109375 27.796875 C-24.47734418 23.09909271 -24.69645254 18.33234114 -24.5546875 12.46484375 C-24.01676716 7.78217827 -22.03680385 5.3290649 -18.51953125 2.34375 C-12.47483194 -1.99974651 -6.95224704 -2.54024411 0 0 Z " fill="#77CAE0" transform="translate(342.25,101.1875)"/>
<path d="M0 0 C0.66 0 1.32 0 2 0 C5 4.38461538 5 4.38461538 5 7 C7.64 7 10.28 7 13 7 C13.04125 8.258125 13.0825 9.51625 13.125 10.8125 C13.30764489 13.00989526 13.30764489 13.00989526 14 15 C16.91841857 17.08632697 16.91841857 17.08632697 20 18 C18.83656369 21.49030894 17.72962211 21.84491208 14.7421875 23.703125 C12.6746529 25.24218663 11.16367689 26.97066421 9.5 28.9375 C2.02700081 37.70516352 2.02700081 37.70516352 -3.4375 38.5 C-8.89390914 37.73418819 -12.59369093 36.47842748 -16.4375 32.4375 C-18.5232592 27.84882976 -18.95717333 23.9606548 -18 19 C-15.875 16.1875 -15.875 16.1875 -13 14 C-8.33237738 10.34707795 -5.0029823 6.60772106 -1.515625 1.79296875 C-1.01546875 1.20128906 -0.5153125 0.60960937 0 0 Z " fill="#FEC7D3" transform="translate(236,135)"/>
<path d="M0 0 C-0.13921875 1.30324219 -0.13921875 1.30324219 -0.28125 2.6328125 C-0.93697714 9.35767497 -0.93697714 9.35767497 1.78125 15.19921875 C3.79723825 16.66506936 5.76231553 17.90613192 8 19 C6 21 6 21 3.22265625 21.91015625 C-0.1224136 23.04139805 -2.62471831 24.49430159 -5.5625 26.4375 C-7.37369941 27.62698274 -9.18616566 28.81453913 -11 30 C-11.83273438 30.56976563 -12.66546875 31.13953125 -13.5234375 31.7265625 C-17.68509646 33.86646916 -21.5707187 33.10169941 -26 32 C-29.42273368 29.60408642 -30.90767473 27.00519266 -32 23 C-32.75961363 16.16347731 -32.75961363 16.16347731 -29.96484375 11.8828125 C-26.94839762 8.48094646 -23.48137216 7.61456104 -19.125 6.8125 C-13.55855264 5.68132213 -4.71458358 0 0 0 Z " fill="#FEC7D3" transform="translate(252,185)"/>
<path d="M0 0 C3.09632649 2.43753362 4.82300487 4.73450731 7 8 C7.125 10.6875 7.125 10.6875 7 13 C7.84304687 13.06058594 8.68609375 13.12117188 9.5546875 13.18359375 C11.19824219 13.30927734 11.19824219 13.30927734 12.875 13.4375 C14.51082031 13.55931641 14.51082031 13.55931641 16.1796875 13.68359375 C19 14 19 14 21 15 C20.25 16.9375 20.25 16.9375 19 19 C15.55457029 20.33988933 12.37360072 19.91698268 8.75 19.5625 C7.67234375 19.46066406 6.5946875 19.35882813 5.484375 19.25390625 C4.66453125 19.17011719 3.8446875 19.08632812 3 19 C2.67 20.32 2.34 21.64 2 23 C5.465 25.97 5.465 25.97 9 29 C8.34 30.32 7.68 31.64 7 33 C2.62645985 33 0.54071557 30.28219327 -2.5625 27.5 C-3.81524901 26.39972266 -5.0691635 25.30077094 -6.32421875 24.203125 C-6.94345215 23.65978516 -7.56268555 23.11644531 -8.20068359 22.55664062 C-12.03026256 19.24356118 -16.01434166 16.12240515 -20 13 C-18.56951306 9.81716656 -16.80982757 7.42084342 -14.5 4.8125 C-13.58734375 3.77029297 -13.58734375 3.77029297 -12.65625 2.70703125 C-9.14837248 -0.90839912 -4.76473706 -0.75015756 0 0 Z " fill="#78CAE0" transform="translate(59,99)"/>
<path d="M0 0 C3.46868763 2.06645221 5.80891972 4.10191909 7 8 C7.15007306 10.69096527 7.08999955 13.30001363 7 16 C10.96 17.65 14.92 19.3 19 21 C18.505 22.485 18.505 22.485 18 24 C11.74456802 26.02878875 6.76528535 23.39023396 1 21 C0.01 21.99 -0.98 22.98 -2 24 C-1.6390625 24.47050781 -1.278125 24.94101563 -0.90625 25.42578125 C-0.21015625 26.35970703 -0.21015625 26.35970703 0.5 27.3125 C0.9640625 27.92738281 1.428125 28.54226562 1.90625 29.17578125 C3 31 3 31 3 34 C1.68 34.66 0.36 35.32 -1 36 C-3.7074558 32.36232894 -6.36829844 28.69272387 -9 25 C-9.6813501 24.04528809 -9.6813501 24.04528809 -10.37646484 23.07128906 C-11.78712154 21.07857236 -13.1770277 19.07278832 -14.5625 17.0625 C-15.01608887 16.4243335 -15.46967773 15.78616699 -15.93701172 15.12866211 C-19.06944907 10.52511317 -19.06944907 10.52511317 -18.72241211 7.90112305 C-16.06326482 0.90322513 -6.66003877 -1.52598947 0 0 Z " fill="#77CAE0" transform="translate(96,65)"/>
<path d="M0 0 C3.61410261 0.83996103 7.02243655 1.73601385 10 4 C10.94480666 6.88815306 11.3762546 8.24749079 10 11 C10.66 11.33 11.32 11.66 12 12 C11.319375 12.20625 10.63875 12.4125 9.9375 12.625 C7.25567529 13.8803222 5.7301097 14.99628509 3.5625 16.9375 C-0.55505905 20.57482538 -3.98175936 22.78755362 -9.5625 23.375 C-14.3541053 22.85227942 -16.75147536 21.50684008 -19.8125 17.8125 C-21.3807393 14.09824902 -21.74002883 10.97363309 -21 7 C-15.74495927 -1.33558184 -9.05324208 -0.7801198 0 0 Z " fill="#FE82AC" transform="translate(274,216)"/>
<path d="M0 0 C3.97438099 2.26173655 6.2254729 4.35843319 9 8 C10.6459651 9.68711423 12.31237149 11.3545622 14 13 C15.33333333 14.33333333 16.66666667 15.66666667 18 17 C16.46356148 20.68069887 14.21849055 22.98775204 11.375 25.75 C10.55773437 26.54921875 9.74046875 27.3484375 8.8984375 28.171875 C8.27195313 28.77515625 7.64546875 29.3784375 7 30 C-1.35958445 27.39619501 -9.19168206 23.94966199 -17 20 C-13.90190746 15.01544517 -10.2855149 10.87337722 -6.25 6.625 C-5.34701172 5.66400391 -5.34701172 5.66400391 -4.42578125 4.68359375 C-2.95437397 3.11876378 -1.47772179 1.55886836 0 0 Z " fill="#FFC6D3" transform="translate(141,249)"/>
<path d="M0 0 C1.30561288 3.91683864 1.22374165 7.66682648 1.25 11.75 C1.270625 12.53632813 1.29125 13.32265625 1.3125 14.1328125 C1.3533668 20.28326625 0.37725465 24.84783913 -3.4140625 29.875 C-6.56821423 32.11242783 -10.22368978 32.3577557 -14 32 C-17 29.625 -17 29.625 -19 27 C-19.33 26.67 -19.66 26.34 -20 26 C-20.55989639 21.64015103 -20.46623909 18.01724893 -18.625 14 C-6.375 0 -6.375 0 0 0 Z " fill="#FEC6D3" transform="translate(199,125)"/>
<path d="M0 0 C0.7528125 -0.01417969 1.505625 -0.02835938 2.28125 -0.04296875 C4.74864173 0.21332722 6.36356256 0.95904847 8.5 2.1875 C8.17 3.8375 7.84 5.4875 7.5 7.1875 C6.61957031 7.16429687 5.73914063 7.14109375 4.83203125 7.1171875 C3.67058594 7.09914063 2.50914062 7.08109375 1.3125 7.0625 C0.16394531 7.03929687 -0.98460937 7.01609375 -2.16796875 6.9921875 C-5.4396878 7.1839647 -7.60194564 7.69585437 -10.5 9.1875 C-12.2615433 12.7105866 -11.93071287 17.31877548 -11.5 21.1875 C-9.82706986 25.03523933 -8.3638011 26.66374745 -4.5 28.1875 C-1.90845081 28.42779959 -1.90845081 28.42779959 0.75 28.3125 C2.08804688 28.28542969 2.08804688 28.28542969 3.453125 28.2578125 C4.12859375 28.23460938 4.8040625 28.21140625 5.5 28.1875 C5.5 26.2075 5.5 24.2275 5.5 22.1875 C3.52 22.1875 1.54 22.1875 -0.5 22.1875 C-0.5 20.5375 -0.5 18.8875 -0.5 17.1875 C3.46 17.1875 7.42 17.1875 11.5 17.1875 C11.5 21.8075 11.5 26.4275 11.5 31.1875 C3.33149094 35.53525482 -1.99433731 35.74570642 -10.8125 33.25 C-15.40163601 29.72810492 -17.85826993 24.63225859 -18.9140625 18.96484375 C-19.11051951 14.33024421 -18.0626478 10.99013868 -15.5 7.1875 C-10.65109796 2.18633775 -7.02315079 0.06012972 0 0 Z " fill="#79CBE0" transform="translate(190.5,31.8125)"/>
<path d="M0 0 C3.37867819 2.17737039 5.74721377 4.12775165 7 8 C7.50818509 11.8960857 7.1671889 13.68419875 5.3125 17.1875 C2.54548002 20.55279457 0.47583985 22.59239222 -3.921875 23.31640625 C-7.69178944 23.53608172 -9.58625456 23.25184505 -12.875 21.25 C-15.39919063 18.57732757 -16.89254215 16.54022914 -17.15234375 12.81640625 C-16.75049951 8.60069486 -16.37532541 6.47676471 -13.6875 3.0625 C-8.67624952 -0.78334339 -6.38750221 -1.56886019 0 0 Z " fill="#FBFDFD" transform="translate(340,106)"/>
<path d="M0 0 C0.33 1.65 0.66 3.3 1 5 C-1.10171867 5.8394882 -3.20646625 6.67139656 -5.3125 7.5 C-6.48425781 7.9640625 -7.65601563 8.428125 -8.86328125 8.90625 C-12 10 -12 10 -15 10 C-14.67 10.7425 -14.34 11.485 -14 12.25 C-13 15 -13 15 -13 19 C-12.26394531 18.69964844 -11.52789062 18.39929688 -10.76953125 18.08984375 C-9.79371094 17.70957031 -8.81789062 17.32929687 -7.8125 16.9375 C-6.84957031 16.55464844 -5.88664062 16.17179687 -4.89453125 15.77734375 C-1.79065325 14.94377867 -0.05080883 15.11320182 3 16 C3 17.32 3 18.64 3 20 C-0.96 21.32 -4.92 22.64 -9 24 C-8.67 26.64 -8.34 29.28 -8 32 C-6.86820313 31.6390625 -5.73640625 31.278125 -4.5703125 30.90625 C-3.08858907 30.43735018 -1.60681563 29.96860836 -0.125 29.5 C0.62136719 29.26152344 1.36773437 29.02304688 2.13671875 28.77734375 C7.7734375 27 7.7734375 27 10 27 C10 28.65 10 30.3 10 32 C7.58335972 32.97556995 5.16475152 33.94545974 2.7421875 34.90625 C1.05415774 35.57953822 -0.62932603 36.26453026 -2.3046875 36.96875 C-7.31134322 39.00919837 -7.31134322 39.00919837 -10.06542969 38.97241211 C-13.20972911 37.39192945 -13.4962134 34.88274445 -14.578125 31.62890625 C-14.90257599 30.67261574 -14.90257599 30.67261574 -15.23358154 29.69700623 C-15.92114934 27.65696493 -16.58531733 25.61009721 -17.25 23.5625 C-17.71210886 22.18636699 -18.17563398 20.81070869 -18.640625 19.43554688 C-22 9.40303639 -22 9.40303639 -22 7 C-18.89878289 5.82538445 -15.79357759 4.66169544 -12.6875 3.5 C-11.80642578 3.16613281 -10.92535156 2.83226562 -10.01757812 2.48828125 C-9.17001953 2.17246094 -8.32246094 1.85664062 -7.44921875 1.53125 C-6.66893311 1.23798828 -5.88864746 0.94472656 -5.0847168 0.64257812 C-3 0 -3 0 0 0 Z " fill="#76CAE0" transform="translate(144,39)"/>
<path d="M0 0 C12.87 0 25.74 0 39 0 C38.34 1.98 37.68 3.96 37 6 C36.39671875 5.96777344 35.7934375 5.93554688 35.171875 5.90234375 C32.53160658 5.94067023 30.49702366 6.11768975 28 7 C25.79305166 9.73241223 24.54251302 12.52908338 24 16 C24.91498157 18.48100772 25.67453912 19.72275555 27.6875 21.4375 C28.120625 21.953125 28.55375 22.46875 29 23 C28.6875 25.6875 28.6875 25.6875 28 28 C20.83541763 24.8545736 15.86699816 17.91774785 10.875 12.09375 C7.96729559 8.84681341 4.8450856 5.82418181 1.72265625 2.78515625 C0 1 0 1 0 0 Z " fill="#7CCCE1" transform="translate(15,149)"/>
<path d="M0 0 C2.98087575 2.45094228 4.86351998 4.79527998 7 8 C7.1953125 10.48046875 7.1953125 10.48046875 7.125 13.1875 C7.10695313 14.08855469 7.08890625 14.98960937 7.0703125 15.91796875 C7.04710937 16.60503906 7.02390625 17.29210937 7 18 C5.35 17.67 3.7 17.34 2 17 C1.34 13.7 0.68 10.4 0 7 C-2.475 6.505 -2.475 6.505 -5 6 C-6.32296487 8.64592975 -6.18507494 10.85987932 -6.3125 13.8125 C-6.6768713 18.71388172 -7.15571921 21.62169264 -11 25 C-14.22340777 26.61170388 -17.51441919 26.59542551 -21 26 C-24.68359748 23.19726278 -26.87597879 20.49608486 -28 16 C-28.1471303 12.99143903 -28.11800242 10.00906171 -28 7 C-26.35 7 -24.7 7 -23 7 C-22.87882812 7.77085937 -22.75765625 8.54171875 -22.6328125 9.3359375 C-22.46523438 10.33882812 -22.29765625 11.34171875 -22.125 12.375 C-21.96257812 13.37273437 -21.80015625 14.37046875 -21.6328125 15.3984375 C-21.2041198 18.1425115 -21.2041198 18.1425115 -19 20 C-16.39719432 19.67958603 -16.39719432 19.67958603 -14 19 C-12.84429296 15.53287889 -12.67164707 12.4585044 -12.4375 8.8125 C-12.35371094 7.54019531 -12.26992188 6.26789063 -12.18359375 4.95703125 C-12.12300781 3.98121094 -12.06242187 3.00539062 -12 2 C-7.7389246 0.18320587 -4.67703475 -0.58462934 0 0 Z " fill="#79CAE0" transform="translate(371,150)"/>
<path d="M0 0 C3.19571444 0.78014729 4.43331257 1.72122277 6.16015625 4.52734375 C7.56617008 8.86563643 7.48788431 11.7080236 5.78515625 15.96484375 C2.60391278 19.07034333 0.69084545 19.49920346 -3.65234375 19.69921875 C-6.76577691 19.45459186 -8.50420673 18.57987325 -10.83984375 16.52734375 C-13.1681075 13.31212238 -13.23695556 10.4190395 -12.83984375 6.52734375 C-9.78906177 0.13522912 -6.6542413 -0.96297151 0 0 Z " fill="#FCC01D" transform="translate(37.83984375,197.47265625)"/>
<path d="M0 0 C0 0.66 0 1.32 0 2 C0.639375 2.28875 1.27875 2.5775 1.9375 2.875 C4 4 4 4 5 6 C5.42792109 14.84370258 5.42792109 14.84370258 3 18 C0.00772317 20.30175141 -3.30718475 20.49235173 -7.02734375 20.3671875 C-9 20 -9 20 -12 18.0625 C-14.67524849 13.96602574 -14.95893414 10.76875356 -14 6 C-10.0254903 -0.35921552 -6.95594861 -0.11219272 0 0 Z " fill="#FCC01C" transform="translate(360,202)"/>
<path d="M0 0 C6.55258692 4.07127643 12.92133531 8.24505598 19 13 C18.01 14.32 17.02 15.64 16 17 C14.02 16.67 12.04 16.34 10 16 C10 15.34 10 14.68 10 14 C6.58629407 15.13790198 6.1718628 15.79773304 4.22265625 18.67578125 C3.70896484 19.42150391 3.19527344 20.16722656 2.66601562 20.93554688 C2.13685547 21.71994141 1.60769531 22.50433594 1.0625 23.3125 C-5.30291144 32.67707462 -5.30291144 32.67707462 -9 36 C-9.99 35.34 -10.98 34.68 -12 34 C-11.38363366 30.7691418 -10.27678382 28.68079467 -8.34765625 26.03125 C-7.81849609 25.29519531 -7.28933594 24.55914062 -6.74414062 23.80078125 C-6.18919922 23.04152344 -5.63425781 22.28226563 -5.0625 21.5 C-3.96754713 19.99139827 -2.87501077 18.48103902 -1.78515625 16.96875 C-1.29926025 16.30294922 -0.81336426 15.63714844 -0.31274414 14.95117188 C0.98034052 13.02922049 2.01321809 11.09315608 3 9 C1.35 7.68 -0.3 6.36 -2 5 C-1.125 1.125 -1.125 1.125 0 0 Z " fill="#78CAE0" transform="translate(299,62)"/>
<path d="M0 0 C2.97 0.495 2.97 0.495 6 1 C4.38542925 10.12633251 2.65688033 19.10604598 0 28 C1.49853516 28.38091797 1.49853516 28.38091797 3.02734375 28.76953125 C4.3309063 29.11652272 5.63428235 29.4642154 6.9375 29.8125 C7.59685547 29.97814453 8.25621094 30.14378906 8.93554688 30.31445312 C10.83984375 30.83203125 10.83984375 30.83203125 14 32 C15 35 15 35 14 38 C6.96212627 36.47512736 -0.0203196 34.77149249 -7 33 C-6.30564279 25.8279053 -4.66237462 18.98754312 -2.9375 12 C-2.65583984 10.84371094 -2.37417969 9.68742187 -2.08398438 8.49609375 C-1.39328783 5.66306724 -0.6985301 2.83110327 0 0 Z " fill="#79CBE0" transform="translate(232,36)"/>
<path d="M0 0 C1.7265625 2.5546875 1.7265625 2.5546875 3.625 5.875 C4.57246094 7.51082031 4.57246094 7.51082031 5.5390625 9.1796875 C7 12 7 12 7 14 C5.88625 14.12375 5.88625 14.12375 4.75 14.25 C1.88280932 14.78089547 1.88280932 14.78089547 0.0625 17 C-2 19 -2 19 -4.9375 20.125 C-8 20 -8 20 -10.875 17.5 C-12.73745669 14.90823179 -13.0485676 13.68700881 -13.5625 10.375 C-13 7 -13 7 -11.3125 4.5625 C-8.61589191 2.74046751 -7.18873549 2.64569606 -4 3 C-4 2.34 -4 1.68 -4 1 C-2 0 -2 0 0 0 Z " fill="#FDC429" transform="translate(279,326)"/>
<path d="M0 0 C3.65907504 0.68607657 5.35167676 1.98984314 8 4.5625 C9.42041821 7.40333641 9.31452272 9.41727278 9 12.5625 C6.32106497 15.86651987 4.3766206 17.41286733 0.125 17.875 C-3 17.5625 -3 17.5625 -5.3125 15.6875 C-7.31593096 13.16466101 -7.94686688 11.96099841 -8.375 8.75 C-8 5.5625 -8 5.5625 -5.875 2.6875 C-3 0.5625 -3 0.5625 0 0 Z " fill="#FDC325" transform="translate(50,258.4375)"/>
<path d="M0 0 C2.5 1.5 2.5 1.5 4 4 C4.791013 8.02098277 4.62153384 10.96411027 2.5 14.5 C-0.98597004 16.59158203 -4.10215706 16.8876276 -8 16 C-11.44150865 13.56226471 -12.762119 12.14182881 -13.625 8 C-12.01791249 0.28597997 -6.91401994 -0.98771713 0 0 Z " fill="#FDC223" transform="translate(229,347)"/>
<path d="M0 0 C3.77380407 0.78620918 5.42070826 1.75093207 8 4.625 C9.125 8 9.125 8 9 11.625 C7.0625 15.0625 7.0625 15.0625 4 17.625 C0.88121827 18.48790403 -0.65888492 18.2083693 -4 17.625 C-6.96341004 15.10610147 -7.8341401 13.49115726 -8.5625 9.6875 C-7.62282019 4.5714655 -5.21837321 1.08716109 0 0 Z " fill="#FDC325" transform="translate(336,265.375)"/>
<path d="M0 0 C0.33 0.99 0.66 1.98 1 3 C1.71542969 2.73316406 2.43085938 2.46632812 3.16796875 2.19140625 C6 2 6 2 8.67578125 4.08984375 C9.54589844 5.02957031 10.41601562 5.96929687 11.3125 6.9375 C12.19550781 7.87464844 13.07851562 8.81179687 13.98828125 9.77734375 C14.98408203 10.87755859 14.98408203 10.87755859 16 12 C15.34 12.66 14.68 13.32 14 14 C13.34 13.34 12.68 12.68 12 12 C11.34 13.32 10.68 14.64 10 16 C9.2575 15.05125 8.515 14.1025 7.75 13.125 C5.72154781 10.67467599 4.0422152 9.12674637 1 8 C-0.65 9.32 -2.3 10.64 -4 12 C-4 11.34 -4 10.68 -4 10 C-4.66 10 -5.32 10 -6 10 C-6.33 10.99 -6.66 11.98 -7 13 C-7.66 12.67 -8.32 12.34 -9 12 C-12.33537489 13.11179163 -13.63707344 14.47411298 -16 17 C-16.78541621 12.02569734 -16.78541621 12.02569734 -16 9 C-12.43123692 5.06463443 -8.29449533 1.9593237 -3 1 C-3 1.99 -3 2.98 -3 4 C-0.94729537 2.15811388 -0.94729537 2.15811388 0 0 Z " fill="#FF84AD" transform="translate(140,242)"/>
<path d="M0 0 C10.23 0 20.46 0 31 0 C31.495 2.475 31.495 2.475 32 5 C31 6 31 6 28.04077148 6.11352539 C26.74727783 6.10828857 25.45378418 6.10305176 24.12109375 6.09765625 C23.09110008 6.09553383 23.09110008 6.09553383 22.04029846 6.09336853 C19.83932199 6.08775479 17.63844591 6.07520007 15.4375 6.0625 C13.94856917 6.05748676 12.45963676 6.05292355 10.97070312 6.04882812 C7.31376925 6.03778093 3.65689442 6.02050713 0 6 C-1.125 2.25 -1.125 2.25 0 0 Z " fill="#FF7EAA" transform="translate(107,192)"/>
<path d="M0 0 C2.475 0.99 2.475 0.99 5 2 C2.97425129 8.31395365 0.34060007 14.27028985 -2.375 20.3125 C-2.85710937 21.42173828 -3.33921875 22.53097656 -3.8359375 23.67382812 C-4.3103125 24.72634766 -4.7846875 25.77886719 -5.2734375 26.86328125 C-5.70060059 27.82532471 -6.12776367 28.78736816 -6.56787109 29.77856445 C-8 32 -8 32 -10.04541016 32.88354492 C-12 33 -12 33 -14 32 C-13.36151633 27.93060554 -12.04564189 24.58835941 -10.3125 20.859375 C-9.77882813 19.70695312 -9.24515625 18.55453125 -8.6953125 17.3671875 C-8.13585937 16.17351562 -7.57640625 14.97984375 -7 13.75 C-6.43444988 12.52885227 -5.86934119 11.3075 -5.3046875 10.0859375 C-1.14620536 1.14620536 -1.14620536 1.14620536 0 0 Z " fill="#7ACBE1" transform="translate(275,49)"/>
<path d="M0 0 C3.17388696 2.11592464 3.85310375 3.43501443 4.8125 7.125 C5 10 5 10 4 12 C-0.38889325 11.33501617 -3.9811485 9.81242323 -8 8 C-6.63016497 11.16115776 -6.0109362 11.9927092 -3 14 C-3.33 14.66 -3.66 15.32 -4 16 C-6.93167219 15.68306247 -8.58982661 15.36774166 -10.8125 13.375 C-12.48520386 10.02959229 -12.46126687 7.69013497 -12 4 C-9.10995895 -0.6963167 -5.08463446 -1.02319133 0 0 Z " fill="#FDC325" transform="translate(94,311)"/>
<path d="M0 0 C2.9375 1.625 2.9375 1.625 5 4 C5.3125 7.25 5.3125 7.25 5 10 C0.83861737 10.08159574 -2.9472484 9.98248524 -7 9 C-5.38780799 12.15272386 -5.38780799 12.15272386 -2.9375 12.5 C-2.298125 12.665 -1.65875 12.83 -1 13 C-0.67 13.99 -0.34 14.98 0 16 C-3.61305558 16.33609819 -5.62603831 16.19511045 -8.875 14.5 C-11.46043632 11.45831021 -11.69010681 9.79992767 -11.4140625 5.90625 C-11 4 -11 4 -9.4375 1.5 C-6.03618625 -0.59311615 -3.92927257 -0.55147685 0 0 Z " fill="#FCC020" transform="translate(138,338)"/>
<path d="M0 0 C0.825 0.185625 1.65 0.37125 2.5 0.5625 C5.58225215 0.94778152 7.1907102 0.83795694 10.125 0.25 C14 0 14 0 16.5 2.1875 C18 5 18 5 18 9 C16.68 8.67 15.36 8.34 14 8 C14 7.01 14 6.02 14 5 C9.545 5.495 9.545 5.495 5 6 C5 7.65 5 9.3 5 11 C4.01 11.33 3.02 11.66 2 12 C1.67 10.68 1.34 9.36 1 8 C0.38511719 8.2165625 -0.22976562 8.433125 -0.86328125 8.65625 C-1.67152344 8.9346875 -2.47976562 9.213125 -3.3125 9.5 C-4.11300781 9.7784375 -4.91351563 10.056875 -5.73828125 10.34375 C-8 11 -8 11 -11 11 C-11.33 9.68 -11.66 8.36 -12 7 C-8.37 6.01 -4.74 5.02 -1 4 C-0.67 2.68 -0.34 1.36 0 0 Z " fill="#FDC52C" transform="translate(45,238)"/>
<path d="M0 0 C1.084021 0.00523682 2.16804199 0.01047363 3.28491211 0.01586914 C5.03964844 0.02070313 5.03964844 0.02070313 6.82983398 0.02563477 C8.67738281 0.03820312 8.67738281 0.03820312 10.56225586 0.05102539 C12.41560547 0.05779297 12.41560547 0.05779297 14.30639648 0.06469727 C17.37089703 0.07652931 20.43530307 0.09301366 23.49975586 0.11352539 C23.88194353 1.76967196 24.21370688 3.43809563 24.49975586 5.11352539 C23.49975586 6.11352539 23.49975586 6.11352539 20.99951172 6.22705078 C19.91549072 6.22181396 18.83146973 6.21657715 17.71459961 6.21118164 C16.54477539 6.20795898 15.37495117 6.20473633 14.16967773 6.20141602 C12.93797852 6.19303711 11.7062793 6.1846582 10.43725586 6.17602539 C8.58390625 6.16925781 8.58390625 6.16925781 6.69311523 6.16235352 C3.62861469 6.15052147 0.56420864 6.13403712 -2.50024414 6.11352539 C-2.88243181 4.45737882 -3.21419516 2.78895515 -3.50024414 1.11352539 C-2.50024414 0.11352539 -2.50024414 0.11352539 0 0 Z " fill="#FF7EAA" transform="translate(119.500244140625,173.886474609375)"/>
<path d="M0 0 C4.56673139 0.5902578 8.71878684 1.38222571 13.046875 3.046875 C12.716875 4.366875 12.386875 5.686875 12.046875 7.046875 C8.01694718 6.49374765 4.02664576 5.8910688 0.046875 5.046875 C-0.08127865 7.4321483 -0.08127865 7.4321483 1.046875 10.046875 C3.57355287 11.71886268 6.24624068 12.90493071 9.046875 14.046875 C8.716875 15.366875 8.386875 16.686875 8.046875 18.046875 C6.27426869 17.59544725 4.5038382 17.13546977 2.734375 16.671875 C1.25517578 16.28902344 1.25517578 16.28902344 -0.25390625 15.8984375 C-2.953125 15.046875 -2.953125 15.046875 -5.953125 13.046875 C-5.953125 12.056875 -5.953125 11.066875 -5.953125 10.046875 C-5.293125 9.716875 -4.633125 9.386875 -3.953125 9.046875 C-3.994375 7.933125 -4.035625 6.819375 -4.078125 5.671875 C-3.8857589 0.09325821 -3.8857589 0.09325821 0 0 Z " fill="#FDC328" transform="translate(344.953125,239.953125)"/>
<path d="M0 0 C4.35989633 0.08767616 7.43917637 1.37583819 11.3125 3.3125 C8.803828 7.49361999 6.87938872 10.40077914 2.3125 12.3125 C-1.5 12.5 -1.5 12.5 -4.6875 12.3125 C-6.29501079 9.29841726 -6.95012597 7.71317186 -6.3125 4.3125 C-5.12852876 0.52379203 -3.90531635 0.33095901 0 0 Z " fill="#FFC4D2" transform="translate(265.6875,220.6875)"/>
<path d="M0 0 C0.20413361 5.73842251 0.27141454 10.60539047 -2 16 C-7 14 -7 14 -12 12 C-12 12.66 -12 13.32 -12 14 C-12.66 14 -13.32 14 -14 14 C-14.66 12.35 -15.32 10.7 -16 9 C-6.15533981 0 -6.15533981 0 0 0 Z " fill="#FFC4D2" transform="translate(200,174)"/>
<path d="M0 0 C2.475 0.495 2.475 0.495 5 1 C5.66 3.97 6.32 6.94 7 10 C7.66 10 8.32 10 9 10 C9.28875 8.88625 9.5775 7.7725 9.875 6.625 C11 3 11 3 13 1 C15.125 1.375 15.125 1.375 17 2 C15.56825986 4.75303561 14.12860078 7.50185432 12.6875 10.25 C12.28337891 11.02730469 11.87925781 11.80460937 11.46289062 12.60546875 C9.53135464 16.28009819 7.66631798 19.79006379 5 23 C3.68 22.67 2.36 22.34 1 22 C1.515625 21.13375 2.03125 20.2675 2.5625 19.375 C5.3120948 12.9194296 2.01405876 6.40952034 0 0 Z " fill="#FCC124" transform="translate(173,349)"/>
<path d="M0 0 C6.6 0 13.2 0 20 0 C20.33 1.65 20.66 3.3 21 5 C17.58173253 6.70913373 13.76645237 6.18458479 10 6.1875 C9.16726562 6.19974609 8.33453125 6.21199219 7.4765625 6.22460938 C6.28160156 6.22750977 6.28160156 6.22750977 5.0625 6.23046875 C4.33160156 6.23457764 3.60070312 6.23868652 2.84765625 6.24291992 C1 6 1 6 -1 4 C-0.67 2.68 -0.34 1.36 0 0 Z " fill="#FF81AC" transform="translate(129,156)"/>
<path d="M0 0 C0 3 0 3 -2 5.1875 C-2.66 5.785625 -3.32 6.38375 -4 7 C-3.278125 6.67 -2.55625 6.34 -1.8125 6 C1.07255039 4.97420431 2.97254276 4.59088416 6 5 C8 8 8 8 7.75 10.5 C7 13 7 13 5 16 C2.375 16.6875 2.375 16.6875 0 17 C0 16.01 0 15.02 0 14 C0.99 13.34 1.98 12.68 3 12 C3.33 11.01 3.66 10.02 4 9 C3.46375 9.33 2.9275 9.66 2.375 10 C-0.5929092 11.24964598 -2.80799279 11.27756584 -6 11 C-6.66 10.34 -7.32 9.68 -8 9 C-7.82837291 5.73908537 -7.19245443 4.23736046 -5.125 1.6875 C-3 0 -3 0 0 0 Z " fill="#FCC42D" transform="translate(313,298)"/>
<path d="M0 0 C-0.125 1.875 -0.125 1.875 -1 4 C-4.0625 5.25 -4.0625 5.25 -7 6 C-7 7.98 -7 9.96 -7 12 C-3.4780279 12.08004482 -0.38018531 12.04005702 3 11 C3.33 11.66 3.66 12.32 4 13 C1.39210199 15.72643883 -0.02109383 16.89359716 -3.875 17.3125 C-7 17 -7 17 -9.3125 15.4375 C-11.58571574 12.15396616 -12.07003547 9.99202191 -12 6 C-8.23970656 1.32504059 -5.8746954 -0.15459725 0 0 Z " fill="#FDC52C" transform="translate(255,339)"/>
<path d="M0 0 C2.9375 0.8125 2.9375 0.8125 4.9375 3.8125 C4.73159746 7.10694058 4.51158028 9.12360367 2.375 11.6875 C1.6634375 12.244375 1.6634375 12.244375 0.9375 12.8125 C-2.99923644 11.50025452 -5.28969294 9.89339673 -8.0625 6.8125 C-6.49259302 2.22354113 -5.34448621 -0.32721344 0 0 Z " fill="#FAFDFD" transform="translate(55.0625,104.1875)"/>
<path d="M0 0 C2 3 2 3 1.875 6 C1 9 1 9 -0.875 10.875 C-3 12 -3 12 -6 12 C-7.38671875 10.57421875 -7.38671875 10.57421875 -8.6875 8.6875 C-9.12449219 8.07261719 -9.56148438 7.45773438 -10.01171875 6.82421875 C-11 5 -11 5 -11 2 C-7.20179334 -1.1279349 -4.66848434 -1.45241735 0 0 Z " fill="#F9FCFD" transform="translate(95,71)"/>
<path d="M0 0 C2.475 0.99 2.475 0.99 5 2 C5 4.97 5 7.94 5 11 C5.9075 10.319375 6.815 9.63875 7.75 8.9375 C11 7 11 7 13.375 7.25 C13.91125 7.4975 14.4475 7.745 15 8 C15 8.66 15 9.32 15 10 C12.6889639 11.33592797 10.37628245 12.66884431 8.0625 14 C7.40314453 14.3815625 6.74378906 14.763125 6.06445312 15.15625 C1.11328125 18 1.11328125 18 0 18 C0 12.06 0 6.12 0 0 Z " fill="#FBC32D" transform="translate(107,323)"/>
<path d="M0 0 C0 0.99 0 1.98 0 3 C-0.99 3 -1.98 3 -3 3 C-3 3.99 -3 4.98 -3 6 C-2.37351562 5.96519531 -1.74703125 5.93039062 -1.1015625 5.89453125 C-0.28429687 5.86746094 0.53296875 5.84039062 1.375 5.8125 C2.18710937 5.77769531 2.99921875 5.74289062 3.8359375 5.70703125 C4.55007813 5.80371094 5.26421875 5.90039062 6 6 C8 9 8 9 7.9375 10.9375 C6.58990691 13.90220479 4.67775311 15.21483126 2 17 C1.01 17 0.02 17 -1 17 C-1 16.01 -1 15.02 -1 14 C-0.360625 13.71125 0.27875 13.4225 0.9375 13.125 C3.15206079 12.17176549 3.15206079 12.17176549 4 10 C3.37351562 10.09539062 2.74703125 10.19078125 2.1015625 10.2890625 C1.28429687 10.39992188 0.46703125 10.51078125 -0.375 10.625 C-1.18710937 10.74101562 -1.99921875 10.85703125 -2.8359375 10.9765625 C-3.55007813 10.98429687 -4.26421875 10.99203125 -5 11 C-5.66 10.34 -6.32 9.68 -7 9 C-6.8125 5.5 -6.8125 5.5 -6 2 C-3 0 -3 0 0 0 Z " fill="#FDC224" transform="translate(297,313)"/>
<path d="M0 0 C0.7425 0.2475 1.485 0.495 2.25 0.75 C1.59 1.306875 0.93 1.86375 0.25 2.4375 C-1.96703358 4.57982423 -1.96703358 4.57982423 -2.125 7.375 C-1.95984251 9.93227196 -1.95984251 9.93227196 0.25 11.75 C3.84679066 11.42673447 3.84679066 11.42673447 7.25 10.75 C7 12.625 7 12.625 6.25 14.75 C3.95157907 16.4738157 2.62296892 16.75932422 -0.25 16.6875 C-3.70861462 15.39051952 -4.88688244 13.92420028 -6.75 10.75 C-7.31971698 6.69076649 -7.37397073 4.67440107 -5.0625 1.25 C-2.75 -0.25 -2.75 -0.25 0 0 Z " fill="#FDC223" transform="translate(272.75,329.25)"/>
<path d="M0 0 C0.66 0.33 1.32 0.66 2 1 C2 2.32 2 3.64 2 5 C4.475 5.99 4.475 5.99 7 7 C6.01 7.99 5.02 8.98 4 10 C3.34 9.67 2.68 9.34 2 9 C-1.48955396 8.69656053 -3.37505704 8.60529918 -6.375 10.5 C-6.91125 10.995 -7.4475 11.49 -8 12 C-9.32 11.34 -10.64 10.68 -12 10 C-8.29909479 6.0747975 -4.45040344 3.05419844 0 0 Z " fill="#FDC222" transform="translate(66,281)"/>
<path d="M0 0 C1.32 0 2.64 0 4 0 C4 0.99 4 1.98 4 3 C5.98 2.34 7.96 1.68 10 1 C9.8125 2.875 9.8125 2.875 9 5 C8.21625 5.226875 7.4325 5.45375 6.625 5.6875 C3.85859636 6.73191317 3.85859636 6.73191317 3.00390625 9.12109375 C2.26058613 11.40084588 1.58825286 13.67568384 1 16 C-0.32 15.67 -1.64 15.34 -3 15 C-2.68917128 13.24970238 -2.37626821 11.49977306 -2.0625 9.75 C-1.88847656 8.77546875 -1.71445313 7.8009375 -1.53515625 6.796875 C-1.09620271 4.50278205 -0.59651408 2.25708029 0 0 Z " fill="#FDC328" transform="translate(155,345)"/>
<path d="M0 0 C2.5 0.25 2.5 0.25 4.5 2.25 C4.8125 5.25 4.8125 5.25 4.5 8.25 C1.5 10.25 1.5 10.25 -0.5625 10 C-2.5 9.25 -2.5 9.25 -4.5 7.25 C-4.75 4.75 -4.75 4.75 -4.5 2.25 C-2.5 0.25 -2.5 0.25 0 0 Z " fill="#FEFCF4" transform="translate(274.5,331.75)"/>
<path d="M0 0 C0 3 0 3 -2.0625 5.1875 C-2.51238281 5.60773438 -2.96226562 6.02796875 -3.42578125 6.4609375 C-5.97853604 8.95668288 -8.23578911 11.70774327 -10.546875 14.42578125 C-11.02640625 14.94527344 -11.5059375 15.46476562 -12 16 C-12.33 16 -12.66 16 -13 16 C-13.78937051 11.00065345 -13.78937051 11.00065345 -13 8 C-9.80345433 4.60326663 -4.90433628 0 0 0 Z " fill="#FFC1D0" transform="translate(137,243)"/>
<path d="M0 0 C1 1 1 1 1.25 3.9375 C1.1675 4.948125 1.085 5.95875 1 7 C-2 9 -2 9 -4.0625 8.75 C-6 8 -6 8 -8 6 C-7.75 2.9375 -7.75 2.9375 -7 0 C-4.31633121 -1.3418344 -2.84719317 -0.73004953 0 0 Z " fill="#FEFBF0" transform="translate(228,351)"/>
<path d="M0 0 C5.56818182 0.56818182 5.56818182 0.56818182 7 2 C7.1875 4.4375 7.1875 4.4375 7 7 C5 9 5 9 1.9375 9.1875 C-1 9 -1 9 -2 8 C-2.1875 5.0625 -2.1875 5.0625 -2 2 C-1.34 1.34 -0.68 0.68 0 0 Z " fill="#FEFBF2" transform="translate(48,263)"/>
<path d="M0 0 C10.23 0 20.46 0 31 0 C31 0.33 31 0.66 31 1 C21.1 1 11.2 1 1 1 C1.33 1.99 1.66 2.98 2 4 C11.57 4.33 21.14 4.66 31 5 C31 5.33 31 5.66 31 6 C20.77 6 10.54 6 0 6 C-1 2 -1 2 0 0 Z " fill="#FF91B5" transform="translate(107,192)"/>
<path d="M0 0 C3.29714793 0.32971479 4.6226839 0.6226839 7 3 C6.44444444 7.55555556 6.44444444 7.55555556 5 9 C2.12794676 9.30232139 0.56088579 9.37392386 -1.875 7.75 C-3 6 -3 6 -2.8125 3.9375 C-2 2 -2 2 0 0 Z " fill="#FCF8EE" transform="translate(334,270)"/>
<path d="M0 0 C1.39456452 0.00667256 2.78911118 0.01863093 4.18359375 0.03515625 C4.89451172 0.03966797 5.60542969 0.04417969 6.33789062 0.04882812 C8.09899388 0.06064761 9.86005411 0.07858362 11.62109375 0.09765625 C11.62109375 0.42765625 11.62109375 0.75765625 11.62109375 1.09765625 C9.97109375 1.09765625 8.32109375 1.09765625 6.62109375 1.09765625 C6.62109375 1.75765625 6.62109375 2.41765625 6.62109375 3.09765625 C4.97109375 2.76765625 3.32109375 2.43765625 1.62109375 2.09765625 C1.29109375 2.75765625 0.96109375 3.41765625 0.62109375 4.09765625 C7.88109375 4.42765625 15.14109375 4.75765625 22.62109375 5.09765625 C22.62109375 5.42765625 22.62109375 5.75765625 22.62109375 6.09765625 C14.04109375 6.09765625 5.46109375 6.09765625 -3.37890625 6.09765625 C-3.70890625 4.44765625 -4.03890625 2.79765625 -4.37890625 1.09765625 C-3.37890625 0.09765625 -3.37890625 0.09765625 0 0 Z " fill="#FF8BB2" transform="translate(120.37890625,173.90234375)"/>
<path d="M0 0 C5.08938811 1.59043379 8.87456643 4.7446951 13 8 C12.34 9.32 11.68 10.64 11 12 C1.40546697 5.84965831 1.40546697 5.84965831 -2 2 C-1.34 1.34 -0.68 0.68 0 0 Z " fill="#FDC326" transform="translate(319,287)"/>
<path d="M0 0 C2.31 0 4.62 0 7 0 C7 0.33 7 0.66 7 1 C5.02 1 3.04 1 1 1 C1 2.65 1 4.3 1 6 C2.65 6 4.3 6 6 6 C6.38218767 7.65614657 6.71395102 9.32457024 7 11 C6 12 6 12 2.625 12.25 C-1 12 -1 12 -2.9375 10.5 C-3.288125 10.005 -3.63875 9.51 -4 9 C-3.525625 8.62875 -3.05125 8.2575 -2.5625 7.875 C-0.47794198 5.37353038 -0.35378509 3.18406582 0 0 Z " fill="#FF8AB1" transform="translate(164,270)"/>
<path d="M0 0 C0.33 0 0.66 0 1 0 C1 1.98 1 3.96 1 6 C1.99 6 2.98 6 4 6 C4.66 4.68 5.32 3.36 6 2 C6 2.66 6 3.32 6 4 C6.66 4.33 7.32 4.66 8 5 C8 8.76687864 7.76462683 9.91190305 6 13 C6.99 13 7.98 13 9 13 C8.67 13.99 8.34 14.98 8 16 C3.97177871 13.93145393 1.7787627 12.21285902 0 8 C-0.23272824 5.2780915 -0.13939346 2.74140478 0 0 Z " fill="#FC8AB0" transform="translate(253,223)"/>
<path d="M0 0 C3.3 0 6.6 0 10 0 C9.01 2.64 8.02 5.28 7 8 C5.8274869 7.04882866 4.66212985 6.08882991 3.5 5.125 C2.8503125 4.59132812 2.200625 4.05765625 1.53125 3.5078125 C1.0259375 3.01023438 0.520625 2.51265625 0 2 C0 1.34 0 0.68 0 0 Z " fill="#F2FAFC" transform="translate(28,155)"/>
<path d="M0 0 C0.556875 0.928125 0.556875 0.928125 1.125 1.875 C3.48622906 4.5510596 5.60131652 5.0936844 9 6 C8.01 7.485 8.01 7.485 7 9 C7.30840599 11.15274948 7.30840599 11.15274948 8 13 C2.25 10.25 2.25 10.25 0 8 C-0.26991906 5.31160615 -0.08737357 2.70858064 0 0 Z " fill="#FF89B1" transform="translate(251,190)"/>
<path d="M0 0 C3.63 0.33 7.26 0.66 11 1 C9.02 1.99 9.02 1.99 7 3 C6.19471111 5.05000871 6.19471111 5.05000871 6 7 C3.36 6.67 0.72 6.34 -2 6 C-0.36587557 4.29159719 0.86906094 3.06546953 3 2 C2.01 1.34 1.02 0.68 0 0 Z " fill="#FF8CB2" transform="translate(225,172)"/>
<path d="M0 0 C1.65 0 3.3 0 5 0 C5.33 1.32 5.66 2.64 6 4 C2.25 5.125 2.25 5.125 0 4 C0 5.32 0 6.64 0 8 C-0.66 8 -1.32 8 -2 8 C-2.33 8.99 -2.66 9.98 -3 11 C-2.67 8.03 -2.34 5.06 -2 2 C-1.34 2 -0.68 2 0 2 C0 1.34 0 0.68 0 0 Z " fill="#FB8CB1" transform="translate(161,150)"/>
<path d="M0 0 C1.32 0 2.64 0 4 0 C3.67 2.31 3.34 4.62 3 7 C2.01 7 1.02 7 0 7 C-1 6 -1 6 -1.125 3.5 C-1 1 -1 1 0 0 Z " fill="#FA7CA7" transform="translate(235,126)"/>
<path d="M0 0 C2.50009087 2.50009087 2.29712739 3.4212859 2.3125 6.875 C2.32925781 7.73867188 2.34601563 8.60234375 2.36328125 9.4921875 C1.93757021 12.43096692 0.94053466 13.79833799 -1 16 C-2.125 10.25 -2.125 10.25 -1 8 C-0.34 8 0.32 8 1 8 C0.67 5.36 0.34 2.72 0 0 Z " fill="#FF90B5" transform="translate(190,276)"/>
<path d="M0 0 C2.97 0.495 2.97 0.495 6 1 C6 1.99 6 2.98 6 4 C3.36 4 0.72 4 -2 4 C-1.34 2.68 -0.68 1.36 0 0 Z " fill="#FEF9E9" transform="translate(133,341)"/>
<path d="M0 0 C0.33 1.32 0.66 2.64 1 4 C-1.76276177 3.47731534 -4.3260876 2.89130413 -7 2 C-7 1.34 -7 0.68 -7 0 C-4.3333581 -1.33332095 -2.83319697 -0.67102033 0 0 Z " fill="#FEF8E7" transform="translate(94,315)"/>
<path d="M0 0 C0.66 0.33 1.32 0.66 2 1 C1.67 1.99 1.34 2.98 1 4 C1.99 4.33 2.98 4.66 4 5 C2.35 6.32 0.7 7.64 -1 9 C-2 5.125 -2 5.125 -2 4 C-2.66 3.67 -3.32 3.34 -4 3 C-2.68 2.01 -1.36 1.02 0 0 Z " fill="#FF8BB1" transform="translate(191,121)"/>
<path d="M0 0 C0.33 0.66 0.66 1.32 1 2 C-0.98 2.99 -2.96 3.98 -5 5 C-5 3.68 -5 2.36 -5 1 C-5.99 0.67 -6.98 0.34 -8 0 C-4.71303767 -0.79953138 -3.28976808 -1.09658936 0 0 Z " fill="#F979A4" transform="translate(267,202)"/>
<path d="M0 0 C3.465 1.485 3.465 1.485 7 3 C6.01 3.99 5.02 4.98 4 6 C1.69 5.34 -0.62 4.68 -3 4 C-2.01 3.34 -1.02 2.68 0 2 C0 1.34 0 0.68 0 0 Z " fill="#FDC93C" transform="translate(66,285)"/>
<path d="M0 0 C0.99 0.33 1.98 0.66 3 1 C1.68 2.32 0.36 3.64 -1 5 C-4.79303725 3.99806563 -7.71536341 3.18975773 -11 1 C-10.06027344 1.01740234 -10.06027344 1.01740234 -9.1015625 1.03515625 C-7.87566406 1.04869141 -7.87566406 1.04869141 -6.625 1.0625 C-5.40683594 1.07990234 -5.40683594 1.07990234 -4.1640625 1.09765625 C-1.95062858 1.14466334 -1.95062858 1.14466334 0 0 Z " fill="#FF94B7" transform="translate(238,216)"/>
<path d="M0 0 C1.65 0.33 3.3 0.66 5 1 C2.46354119 4.10011632 -0.15184135 5.0575938 -4 6 C-6.375 5.625 -6.375 5.625 -8 5 C-4.62902617 3.50178941 -2.79557881 3 1 3 C0.67 2.01 0.34 1.02 0 0 Z " fill="#FF8FB4" transform="translate(243,186)"/>
<path d="M0 0 C1.65 0.33 3.3 0.66 5 1 C5.33 1.99 5.66 2.98 6 4 C3.36 4 0.72 4 -2 4 C-2 3.34 -2 2.68 -2 2 C-1.34 2 -0.68 2 0 2 C0 1.34 0 0.68 0 0 Z " fill="#F87AA4" transform="translate(136,175)"/>
<path d="M0 0 C0.66 0.33 1.32 0.66 2 1 C-2.30769231 6.78461538 -2.30769231 6.78461538 -5.8125 7.875 C-6.8953125 7.936875 -6.8953125 7.936875 -8 8 C-7.67 7.34 -7.34 6.68 -7 6 C-6.34 6 -5.68 6 -5 6 C-4.731875 5.38125 -4.46375 4.7625 -4.1875 4.125 C-3 2 -3 2 0 0 Z " fill="#FF8AB1" transform="translate(253,156)"/>
<path d="M0 0 C0.99 0.33 1.98 0.66 3 1 C3 1.66 3 2.32 3 3 C1.34928604 4.02611949 -0.31970006 5.02308143 -2 6 C-3.75149165 7.58245275 -3.75149165 7.58245275 -5 9 C-5.66 8.67 -6.32 8.34 -7 8 C-4.69 5.36 -2.38 2.72 0 0 Z " fill="#F7B9C9" transform="translate(183,201)"/>
<path d="M0 0 C1.32 0.66 2.64 1.32 4 2 C2.68 3.32 1.36 4.64 0 6 C-0.33 5.01 -0.66 4.02 -1 3 C-1.66 2.67 -2.32 2.34 -3 2 C-2.01 2 -1.02 2 0 2 C0 1.34 0 0.68 0 0 Z " fill="#F78BAF" transform="translate(137,225)"/>
<path d="M0 0 C0.99 0 1.98 0 3 0 C2.67 1.65 2.34 3.3 2 5 C0.68 5 -0.64 5 -2 5 C-1.34 4.67 -0.68 4.34 0 4 C0 2.68 0 1.36 0 0 Z " fill="#F779A3" transform="translate(161,273)"/>
<path d="M0 0 C2 1.375 2 1.375 4 3 C4 3.66 4 4.32 4 5 C3.01 5.33 2.02 5.66 1 6 C0.34 5.67 -0.32 5.34 -1 5 C-0.67 3.35 -0.34 1.7 0 0 Z M-1 6 C1 7 1 7 1 7 Z " fill="#FF79A7" transform="translate(155,171)"/>
</svg>
